<svg xmlns="http://www.w3.org/2000/svg" xmlns:xlink="http://www.w3.org/1999/xlink" version="1.1" x="0px" y="0px" viewBox="5.0 -10.0 100.0 135.0" enable-background="new 0 0 100 100" xml:space="preserve" height="100px" width="100px">
<g id="guias">
</g>
<g id="Capa_1">
	<g>
		<path fill="#000000" d="M63,27.7C63,27.8,63.1,27.8,63,27.7l9.3,9.2L63,27.7z"/>
		<path d="M82.9,44.7L74,35.9v-8.8c0-0.5-0.5-1-1-1h-8.8L50.7,12.6c-0.4-0.4-1-0.4-1.4,0L17.2,44.7c-0.2,0.2-0.3,0.4-0.3,0.7v41.2    c0,0.5,0.5,1,1,1h64.2c0.5,0,1-0.5,1-1V45.4C83.2,45.1,83,44.9,82.9,44.7z M72,28.1v5.8l-5.8-5.8H72z M81.2,85.7H18.9V45.8    L50,14.7l13,13l9.3,9.2c0,0,0,0,0,0l8.8,8.8V85.7z"/>
	</g>
	<g>
		<path d="M36.3,58.2h-9.2c-0.6,0-1,0.5-1,1v13.8c0,0.5,0.4,1,1,1h9.2c0.5,0,1-0.5,1-1V59.2C37.3,58.6,36.8,58.2,36.3,58.2z     M35.3,71.9h-7.2V60.2h7.2V71.9z"/>
	</g>
</g>
<text x="0.0" y="117.5" font-size="5.0" font-weight="bold" font-family="Helvetica Neue, Helvetica, Arial-Unicode, Arial, Sans-serif" fill="#000000">Created by Guillermo Guso</text><text x="0.0" y="122.5" font-size="5.0" font-weight="bold" font-family="Helvetica Neue, Helvetica, Arial-Unicode, Arial, Sans-serif" fill="#000000">from the Noun Project</text></svg>