<?xml version="1.0" encoding="utf-8"?>
<!-- Generator: Adobe Illustrator 16.0.0, SVG Export Plug-In . SVG Version: 6.00 Build 0)  -->
<!DOCTYPE svg PUBLIC "-//W3C//DTD SVG 1.1//EN" "http://www.w3.org/Graphics/SVG/1.1/DTD/svg11.dtd">
<svg version="1.1" id="Layer_1" xmlns="http://www.w3.org/2000/svg" xmlns:xlink="http://www.w3.org/1999/xlink" x="0px" y="0px"
	 width="48px" height="48px" viewBox="0 0 48 48" enable-background="new 0 0 48 48" xml:space="preserve">
<g>
	<path d="M33.535,20.918c1.212-0.259,2.329-1.26,2.511-3.48c0.15-1.817-0.317-2.753-1.005-3.23c1.911-7.785-3.358-9.309-3.358-9.309
		S27.747-1.78,20.065,2.907c-0.977,0.596-2.496,1.738-3.401,2.917c-1.453,1.546-2.442,4.059-2.597,8.129
		c-0.938,0.358-1.675,1.264-1.492,3.484c0.192,2.321,1.403,3.309,2.677,3.511c1.72,4.189,5.116,7.641,9.135,7.641
		C28.416,28.589,31.819,25.121,33.535,20.918z M24.388,26.636c-4.647,0-8.389-6.31-8.389-11.535c0-0.716,0.023-1.38,0.067-1.996
		c6.797,0.297,10.818-2.428,13.005-4.792c2.075,2.068,3.153,4.68,3.704,6.619c0,0.056,0.001,0.111,0.001,0.168
		C32.777,20.326,29.035,26.636,24.388,26.636z"/>
	<path d="M21.726,34.536l0.538-2.227c0.062-0.256,0.195-0.476,0.375-0.645c-0.055-0.039-0.109-0.08-0.162-0.123l-4.806-3.98
		l-2.925,0.684c-4.953,1.165-8.443,5.348-8.443,10.146v6.3c0,1.24,1.103,2.229,2.423,2.229h12.381l1.888-10.762
		C22.147,36.146,21.526,35.363,21.726,34.536z"/>
	<path d="M33.854,28.245l-2.885-0.684l-4.801,3.98c-0.053,0.043-0.105,0.084-0.16,0.123c0.181,0.169,0.315,0.389,0.377,0.645
		l0.538,2.227c0.2,0.827-0.421,1.611-1.269,1.623l1.887,10.762h12.381c1.32,0,2.325-0.989,2.325-2.229v-6.3
		C42.248,33.593,38.807,29.41,33.854,28.245z"/>
</g>
</svg>
