<svg xmlns="http://www.w3.org/2000/svg" xmlns:xlink="http://www.w3.org/1999/xlink" version="1.1" id="Layer_1" x="0px" y="0px" width="100px" height="100px" viewBox="5.0 -10.0 100.0 135.0" enable-background="new 0 0 100 100" xml:space="preserve">

	<path d="M80.057,64.455c0-0.138-0.004-0.271-0.009-0.404c-0.005-0.04-0.005-0.078-0.005-0.116c-0.038-1.011-0.133-2.006-0.26-2.987  c-2.694-20.625-23.785-49.052-28.745-55.5c-0.662-0.86-1.456-0.808-2.193,0.154c-5.162,6.717-25.95,34.876-28.63,55.346  c-0.133,0.981-0.218,1.977-0.26,2.987c0,0.038,0,0.076-0.005,0.116c0,0.133-0.004,0.267-0.009,0.404  c0,0.215-0.005,0.423-0.005,0.636c0,0.208,0.005,0.413,0.005,0.614C20.271,82.024,33.596,95.16,49.998,95.16  c16.611,0,30.068-13.46,30.068-30.069C80.066,64.878,80.062,64.67,80.057,64.455z M38.909,80.578  c-5.294-2.851-8.995-8.326-9.118-14.729c-0.005-0.116-0.005-0.231-0.005-0.346c0-0.122,0-0.245,0.005-0.356  c0-0.083,0.005-0.161,0.005-0.234c0-0.023,0-0.042,0-0.063c0.023-0.572,0.071-1.135,0.151-1.688  c0.505-3.897,2.207-8.265,4.273-12.526c1.579-3.254,4.963-1.208,4.547,1.111c-0.227,1.26-0.832,7.78-0.832,13.367  s3.323,9.511,4.986,11.829C44.591,79.259,41.433,81.939,38.909,80.578z"/>

</svg>